<mxfile host="app.diagrams.net" modified="2024-03-11T12:09:56.364Z" agent="Mozilla/5.0 (Windows NT 10.0; Win64; x64) AppleWebKit/537.36 (KHTML, like Gecko) Chrome/122.0.0.0 Safari/537.36" etag="F0T5LIuhFEjrRMNyUfJi" version="23.1.7" type="device">
  <diagram name="Página-1" id="HywAWnOtGF0BsKd9ol2O">
    <mxGraphModel dx="819" dy="446" grid="1" gridSize="10" guides="1" tooltips="1" connect="1" arrows="1" fold="1" page="1" pageScale="1" pageWidth="827" pageHeight="1169" math="0" shadow="0">
      <root>
        <mxCell id="0" />
        <mxCell id="1" parent="0" />
        <mxCell id="TKPtklyjMfGdLKc8OTxB-3" value="&lt;h1&gt;Fluxograma&lt;/h1&gt;&lt;p&gt;&lt;/p&gt;Faça um programa que solicite que o usuário digite dois valores inteiros diferentes e imprima todos os valores entre o um número e o outro;" style="text;html=1;spacing=5;spacingTop=-20;whiteSpace=wrap;overflow=hidden;rounded=0;" vertex="1" parent="1">
          <mxGeometry x="299" y="40" width="230" height="110" as="geometry" />
        </mxCell>
        <mxCell id="TKPtklyjMfGdLKc8OTxB-8" style="edgeStyle=orthogonalEdgeStyle;rounded=0;orthogonalLoop=1;jettySize=auto;html=1;exitX=0.5;exitY=1;exitDx=0;exitDy=0;exitPerimeter=0;entryX=0.5;entryY=0;entryDx=0;entryDy=0;" edge="1" parent="1" source="TKPtklyjMfGdLKc8OTxB-4" target="TKPtklyjMfGdLKc8OTxB-5">
          <mxGeometry relative="1" as="geometry" />
        </mxCell>
        <mxCell id="TKPtklyjMfGdLKc8OTxB-4" value="Início" style="strokeWidth=2;html=1;shape=mxgraph.flowchart.start_1;whiteSpace=wrap;" vertex="1" parent="1">
          <mxGeometry x="354" y="170" width="60" height="20" as="geometry" />
        </mxCell>
        <mxCell id="TKPtklyjMfGdLKc8OTxB-5" value="i, v1, v2" style="rounded=1;whiteSpace=wrap;html=1;absoluteArcSize=1;arcSize=14;strokeWidth=2;" vertex="1" parent="1">
          <mxGeometry x="349" y="210" width="70" height="30" as="geometry" />
        </mxCell>
        <mxCell id="TKPtklyjMfGdLKc8OTxB-6" value="&lt;br&gt;v1, v2" style="html=1;strokeWidth=2;shape=manualInput;whiteSpace=wrap;rounded=1;size=26;arcSize=11;" vertex="1" parent="1">
          <mxGeometry x="351" y="250" width="66" height="50" as="geometry" />
        </mxCell>
        <mxCell id="TKPtklyjMfGdLKc8OTxB-11" value="Sim" style="edgeStyle=orthogonalEdgeStyle;rounded=0;orthogonalLoop=1;jettySize=auto;html=1;exitX=0;exitY=0.5;exitDx=0;exitDy=0;exitPerimeter=0;entryX=0.5;entryY=0;entryDx=0;entryDy=0;" edge="1" parent="1" source="TKPtklyjMfGdLKc8OTxB-7" target="TKPtklyjMfGdLKc8OTxB-12">
          <mxGeometry x="-0.3483" relative="1" as="geometry">
            <mxPoint x="290" y="345.20000000000005" as="targetPoint" />
            <mxPoint as="offset" />
          </mxGeometry>
        </mxCell>
        <mxCell id="TKPtklyjMfGdLKc8OTxB-22" value="Não" style="edgeStyle=orthogonalEdgeStyle;rounded=0;orthogonalLoop=1;jettySize=auto;html=1;exitX=1;exitY=0.5;exitDx=0;exitDy=0;exitPerimeter=0;entryX=0.5;entryY=0;entryDx=0;entryDy=0;" edge="1" parent="1" source="TKPtklyjMfGdLKc8OTxB-7" target="TKPtklyjMfGdLKc8OTxB-23">
          <mxGeometry x="-0.4082" relative="1" as="geometry">
            <mxPoint x="500" y="345.20000000000005" as="targetPoint" />
            <mxPoint as="offset" />
          </mxGeometry>
        </mxCell>
        <mxCell id="TKPtklyjMfGdLKc8OTxB-7" value="v1 &amp;lt; v2" style="strokeWidth=2;html=1;shape=mxgraph.flowchart.decision;whiteSpace=wrap;" vertex="1" parent="1">
          <mxGeometry x="349" y="320" width="70" height="50" as="geometry" />
        </mxCell>
        <mxCell id="TKPtklyjMfGdLKc8OTxB-9" style="edgeStyle=orthogonalEdgeStyle;rounded=0;orthogonalLoop=1;jettySize=auto;html=1;exitX=0.5;exitY=1;exitDx=0;exitDy=0;entryX=0.506;entryY=0.232;entryDx=0;entryDy=0;entryPerimeter=0;" edge="1" parent="1" source="TKPtklyjMfGdLKc8OTxB-5" target="TKPtklyjMfGdLKc8OTxB-6">
          <mxGeometry relative="1" as="geometry" />
        </mxCell>
        <mxCell id="TKPtklyjMfGdLKc8OTxB-10" style="edgeStyle=orthogonalEdgeStyle;rounded=0;orthogonalLoop=1;jettySize=auto;html=1;exitX=0.5;exitY=1;exitDx=0;exitDy=0;entryX=0.5;entryY=0;entryDx=0;entryDy=0;entryPerimeter=0;" edge="1" parent="1" source="TKPtklyjMfGdLKc8OTxB-6" target="TKPtklyjMfGdLKc8OTxB-7">
          <mxGeometry relative="1" as="geometry" />
        </mxCell>
        <mxCell id="TKPtklyjMfGdLKc8OTxB-12" value="i = v1" style="rounded=1;whiteSpace=wrap;html=1;absoluteArcSize=1;arcSize=14;strokeWidth=2;" vertex="1" parent="1">
          <mxGeometry x="250" y="370" width="70" height="30" as="geometry" />
        </mxCell>
        <mxCell id="TKPtklyjMfGdLKc8OTxB-20" value="Não" style="edgeStyle=orthogonalEdgeStyle;rounded=0;orthogonalLoop=1;jettySize=auto;html=1;exitX=1;exitY=0.5;exitDx=0;exitDy=0;exitPerimeter=0;entryX=0.5;entryY=0;entryDx=0;entryDy=0;entryPerimeter=0;" edge="1" parent="1" source="TKPtklyjMfGdLKc8OTxB-13" target="TKPtklyjMfGdLKc8OTxB-21">
          <mxGeometry x="-0.6537" relative="1" as="geometry">
            <mxPoint x="360" y="520" as="targetPoint" />
            <mxPoint as="offset" />
          </mxGeometry>
        </mxCell>
        <mxCell id="TKPtklyjMfGdLKc8OTxB-13" value="i &amp;lt;= v2" style="strokeWidth=2;html=1;shape=mxgraph.flowchart.decision;whiteSpace=wrap;" vertex="1" parent="1">
          <mxGeometry x="250" y="420" width="70" height="50" as="geometry" />
        </mxCell>
        <mxCell id="TKPtklyjMfGdLKc8OTxB-14" value="i++" style="rounded=1;whiteSpace=wrap;html=1;absoluteArcSize=1;arcSize=14;strokeWidth=2;" vertex="1" parent="1">
          <mxGeometry x="160" y="500" width="70" height="30" as="geometry" />
        </mxCell>
        <mxCell id="TKPtklyjMfGdLKc8OTxB-17" style="edgeStyle=orthogonalEdgeStyle;rounded=0;orthogonalLoop=1;jettySize=auto;html=1;exitX=0;exitY=0.5;exitDx=0;exitDy=0;exitPerimeter=0;entryX=1;entryY=0.5;entryDx=0;entryDy=0;" edge="1" parent="1" source="TKPtklyjMfGdLKc8OTxB-15" target="TKPtklyjMfGdLKc8OTxB-14">
          <mxGeometry relative="1" as="geometry" />
        </mxCell>
        <mxCell id="TKPtklyjMfGdLKc8OTxB-15" value="i" style="strokeWidth=2;html=1;shape=mxgraph.flowchart.display;whiteSpace=wrap;" vertex="1" parent="1">
          <mxGeometry x="260" y="500" width="50" height="30" as="geometry" />
        </mxCell>
        <mxCell id="TKPtklyjMfGdLKc8OTxB-16" value="Sim" style="edgeStyle=orthogonalEdgeStyle;rounded=0;orthogonalLoop=1;jettySize=auto;html=1;exitX=0.5;exitY=1;exitDx=0;exitDy=0;exitPerimeter=0;entryX=0.5;entryY=0;entryDx=0;entryDy=0;entryPerimeter=0;" edge="1" parent="1" source="TKPtklyjMfGdLKc8OTxB-13" target="TKPtklyjMfGdLKc8OTxB-15">
          <mxGeometry relative="1" as="geometry" />
        </mxCell>
        <mxCell id="TKPtklyjMfGdLKc8OTxB-18" style="edgeStyle=orthogonalEdgeStyle;rounded=0;orthogonalLoop=1;jettySize=auto;html=1;exitX=0.5;exitY=0;exitDx=0;exitDy=0;entryX=0;entryY=0.5;entryDx=0;entryDy=0;entryPerimeter=0;" edge="1" parent="1" source="TKPtklyjMfGdLKc8OTxB-14" target="TKPtklyjMfGdLKc8OTxB-13">
          <mxGeometry relative="1" as="geometry" />
        </mxCell>
        <mxCell id="TKPtklyjMfGdLKc8OTxB-19" style="edgeStyle=orthogonalEdgeStyle;rounded=0;orthogonalLoop=1;jettySize=auto;html=1;exitX=0.5;exitY=1;exitDx=0;exitDy=0;entryX=0.5;entryY=0;entryDx=0;entryDy=0;entryPerimeter=0;" edge="1" parent="1" source="TKPtklyjMfGdLKc8OTxB-12" target="TKPtklyjMfGdLKc8OTxB-13">
          <mxGeometry relative="1" as="geometry" />
        </mxCell>
        <mxCell id="TKPtklyjMfGdLKc8OTxB-21" value="Fim" style="strokeWidth=2;html=1;shape=mxgraph.flowchart.start_1;whiteSpace=wrap;" vertex="1" parent="1">
          <mxGeometry x="354" y="560" width="60" height="20" as="geometry" />
        </mxCell>
        <mxCell id="TKPtklyjMfGdLKc8OTxB-23" value="i = v2" style="rounded=1;whiteSpace=wrap;html=1;absoluteArcSize=1;arcSize=14;strokeWidth=2;" vertex="1" parent="1">
          <mxGeometry x="430" y="370" width="70" height="30" as="geometry" />
        </mxCell>
        <mxCell id="TKPtklyjMfGdLKc8OTxB-25" value="i &amp;lt;= v1" style="strokeWidth=2;html=1;shape=mxgraph.flowchart.decision;whiteSpace=wrap;" vertex="1" parent="1">
          <mxGeometry x="430" y="420" width="70" height="50" as="geometry" />
        </mxCell>
        <mxCell id="TKPtklyjMfGdLKc8OTxB-26" value="i++" style="rounded=1;whiteSpace=wrap;html=1;absoluteArcSize=1;arcSize=14;strokeWidth=2;" vertex="1" parent="1">
          <mxGeometry x="530" y="460" width="70" height="30" as="geometry" />
        </mxCell>
        <mxCell id="TKPtklyjMfGdLKc8OTxB-27" style="edgeStyle=orthogonalEdgeStyle;rounded=0;orthogonalLoop=1;jettySize=auto;html=1;exitX=1;exitY=0.5;exitDx=0;exitDy=0;exitPerimeter=0;entryX=0.5;entryY=1;entryDx=0;entryDy=0;" edge="1" source="TKPtklyjMfGdLKc8OTxB-28" target="TKPtklyjMfGdLKc8OTxB-26" parent="1">
          <mxGeometry relative="1" as="geometry">
            <mxPoint x="430" y="570" as="sourcePoint" />
            <mxPoint x="594" y="550" as="targetPoint" />
          </mxGeometry>
        </mxCell>
        <mxCell id="TKPtklyjMfGdLKc8OTxB-28" value="i" style="strokeWidth=2;html=1;shape=mxgraph.flowchart.display;whiteSpace=wrap;" vertex="1" parent="1">
          <mxGeometry x="440" y="500" width="50" height="30" as="geometry" />
        </mxCell>
        <mxCell id="TKPtklyjMfGdLKc8OTxB-29" value="Sim" style="edgeStyle=orthogonalEdgeStyle;rounded=0;orthogonalLoop=1;jettySize=auto;html=1;exitX=0.5;exitY=1;exitDx=0;exitDy=0;exitPerimeter=0;entryX=0.5;entryY=0;entryDx=0;entryDy=0;entryPerimeter=0;" edge="1" source="TKPtklyjMfGdLKc8OTxB-25" target="TKPtklyjMfGdLKc8OTxB-28" parent="1">
          <mxGeometry relative="1" as="geometry" />
        </mxCell>
        <mxCell id="TKPtklyjMfGdLKc8OTxB-31" style="edgeStyle=orthogonalEdgeStyle;rounded=0;orthogonalLoop=1;jettySize=auto;html=1;exitX=0.5;exitY=1;exitDx=0;exitDy=0;entryX=0.5;entryY=0;entryDx=0;entryDy=0;entryPerimeter=0;" edge="1" source="TKPtklyjMfGdLKc8OTxB-23" target="TKPtklyjMfGdLKc8OTxB-25" parent="1">
          <mxGeometry relative="1" as="geometry" />
        </mxCell>
        <mxCell id="TKPtklyjMfGdLKc8OTxB-33" style="edgeStyle=orthogonalEdgeStyle;rounded=0;orthogonalLoop=1;jettySize=auto;html=1;exitX=0.5;exitY=0;exitDx=0;exitDy=0;entryX=1;entryY=0.5;entryDx=0;entryDy=0;entryPerimeter=0;" edge="1" parent="1" source="TKPtklyjMfGdLKc8OTxB-26" target="TKPtklyjMfGdLKc8OTxB-25">
          <mxGeometry relative="1" as="geometry">
            <Array as="points">
              <mxPoint x="565" y="445" />
            </Array>
          </mxGeometry>
        </mxCell>
        <mxCell id="TKPtklyjMfGdLKc8OTxB-34" value="Não" style="edgeStyle=orthogonalEdgeStyle;rounded=0;orthogonalLoop=1;jettySize=auto;html=1;exitX=0;exitY=0.5;exitDx=0;exitDy=0;exitPerimeter=0;entryX=0.5;entryY=0;entryDx=0;entryDy=0;entryPerimeter=0;" edge="1" parent="1" source="TKPtklyjMfGdLKc8OTxB-25" target="TKPtklyjMfGdLKc8OTxB-21">
          <mxGeometry x="-0.7163" relative="1" as="geometry">
            <mxPoint as="offset" />
          </mxGeometry>
        </mxCell>
      </root>
    </mxGraphModel>
  </diagram>
</mxfile>
